<?xml version="1.0"?>
<svg xmlns="http://www.w3.org/2000/svg" xmlns:xlink="http://www.w3.org/1999/xlink" xmlns:svgjs="http://svgjs.com/svgjs" version="1.1" width="512" height="512" x="0" y="0" viewBox="0 0 512.004 512.004" style="enable-background:new 0 0 512 512" xml:space="preserve" class=""><g>
<g xmlns="http://www.w3.org/2000/svg">
	<g>
		<path d="M503.468,204.803h-85.333v17.067h76.8v273.067H17.068V221.87h76.8v-17.067H8.535c-4.71,0-8.533,3.814-8.533,8.533V503.47    c0,4.719,3.823,8.533,8.533,8.533h494.933c4.71,0,8.533-3.814,8.533-8.533V213.337    C512.002,208.618,508.179,204.803,503.468,204.803z" fill="#007bff" data-original="#000000" style="" class=""/>
	</g>
</g>
<g xmlns="http://www.w3.org/2000/svg">
	<g>
		<path d="M507.086,205.614c-2.995-1.408-6.537-0.947-9.079,1.169L303.088,369.224c-2.074,1.732-3.209,4.352-3.055,7.049    c0.154,2.696,1.579,5.163,3.84,6.647l194.918,127.693c1.417,0.922,3.046,1.391,4.676,1.391c1.391,0,2.79-0.341,4.053-1.024    c2.765-1.493,4.48-4.378,4.48-7.509V213.337C512.002,210.034,510.09,207.013,507.086,205.614z M494.935,487.683L322.869,374.949    l172.066-143.394V487.683z" fill="#007bff" data-original="#000000" style="" class=""/>
	</g>
</g>
<g xmlns="http://www.w3.org/2000/svg">
	<g>
		<path d="M208.915,369.215L13.996,206.783c-2.543-2.116-6.084-2.577-9.079-1.169c-3.004,1.399-4.915,4.412-4.915,7.723V503.47    c0,3.14,1.724,6.025,4.48,7.509c1.263,0.683,2.662,1.024,4.053,1.024c1.63,0,3.26-0.461,4.676-1.391l194.918-127.701    c2.261-1.485,3.686-3.951,3.84-6.647C212.123,373.567,210.988,370.947,208.915,369.215z M17.068,487.683V231.555l172.066,143.394    L17.068,487.683z" fill="#007bff" data-original="#000000" style="" class=""/>
	</g>
</g>
<g xmlns="http://www.w3.org/2000/svg">
	<g>
		<path d="M503.468,204.803h-85.333c-4.71,0-8.533,3.814-8.533,8.533v67.115l-106.513,88.772c-2.074,1.732-3.209,4.352-3.055,7.049    c0.154,2.696,1.579,5.163,3.84,6.647l194.918,127.693c1.417,0.922,3.046,1.391,4.676,1.391c1.391,0,2.79-0.341,4.053-1.024    c2.765-1.493,4.48-4.378,4.48-7.509V213.337C512.002,208.618,508.179,204.803,503.468,204.803z M494.935,487.683L322.869,374.949    l100.727-83.942c1.946-1.63,3.072-4.028,3.072-6.562V221.87h68.267V487.683z" fill="#007bff" data-original="#000000" style="" class=""/>
	</g>
</g>
<g xmlns="http://www.w3.org/2000/svg">
	<g>
		<path d="M208.915,369.206l-106.513-88.764v-67.106c0-4.719-3.823-8.533-8.533-8.533H8.535c-4.71,0-8.533,3.814-8.533,8.533V503.47    c0,3.14,1.724,6.025,4.48,7.509c1.263,0.683,2.662,1.024,4.053,1.024c1.63,0,3.26-0.461,4.676-1.391l194.918-127.71    c2.261-1.485,3.686-3.951,3.84-6.647C212.123,373.558,210.988,370.939,208.915,369.206z M17.068,487.683V221.87h68.267v62.575    c0,2.534,1.126,4.941,3.072,6.562l100.727,83.942L17.068,487.683z" fill="#007bff" data-original="#000000" style="" class=""/>
	</g>
</g>
<g xmlns="http://www.w3.org/2000/svg">
	<g>
		<path d="M97.495,135.001c-2.995-1.399-6.519-0.956-9.071,1.152L3.091,206.766c-2.765,2.287-3.806,6.084-2.586,9.463    s4.429,5.641,8.03,5.641h85.333c4.71,0,8.533-3.814,8.533-8.533v-70.613C102.402,139.412,100.49,136.409,97.495,135.001z     M85.335,204.803H32.232l53.103-43.938V204.803z" fill="#007bff" data-original="#000000" style="" class=""/>
	</g>
</g>
<g xmlns="http://www.w3.org/2000/svg">
	<g>
		<path d="M323.304,53.166l-61.867-51.2c-3.157-2.62-7.723-2.62-10.88,0l-61.867,51.2c-2.765,2.287-3.806,6.084-2.586,9.464    c1.22,3.379,4.429,5.641,8.03,5.641h123.733c3.601,0,6.801-2.261,8.021-5.641C327.11,59.25,326.077,55.461,323.304,53.166z     M217.832,51.203l38.17-31.59l38.17,31.59H217.832z" fill="#007bff" data-original="#000000" style="" class=""/>
	</g>
</g>
<g xmlns="http://www.w3.org/2000/svg">
	<g>
		<path d="M508.912,206.766l-57.088-47.249c-2.842-2.347-6.861-2.603-9.984-0.649c-7.97,5.009-16.512,8.465-25.395,10.257    c-3.985,0.802-6.844,4.301-6.844,8.363v35.849c0,4.719,3.823,8.533,8.533,8.533h85.333c3.601,0,6.81-2.261,8.03-5.641    C512.718,212.85,511.686,209.061,508.912,206.766z M426.668,204.803v-20.617c6.494-1.852,12.809-4.429,18.859-7.723l34.244,28.339    H426.668z" fill="#007bff" data-original="#000000" style="" class=""/>
	</g>
</g>
<g xmlns="http://www.w3.org/2000/svg">
	<g>
		<path d="M401.068,0.003c-51.755,0-93.867,42.112-93.867,93.867c0,51.755,42.112,93.867,93.867,93.867    c51.763,0,93.867-42.112,93.867-93.867C494.935,42.115,452.823,0.003,401.068,0.003z M401.068,170.67    c-42.351,0-76.8-34.449-76.8-76.8c0-42.351,34.449-76.8,76.8-76.8s76.8,34.449,76.8,76.8    C477.868,136.221,443.419,170.67,401.068,170.67z" fill="#007bff" data-original="#000000" style="" class=""/>
	</g>
</g>
<g xmlns="http://www.w3.org/2000/svg">
	<g>
		<path d="M440.663,61.716c-3.618-3.004-8.994-2.534-12.015,1.092l-36.685,44.023l-18.995-18.995c-3.328-3.337-8.738-3.337-12.066,0    c-3.336,3.337-3.336,8.73,0,12.066l25.6,25.6c1.604,1.613,3.772,2.5,6.033,2.5c0.128,0,0.256,0,0.384-0.009    c2.398-0.102,4.634-1.212,6.17-3.055l42.667-51.2C444.776,70.113,444.281,64.737,440.663,61.716z" fill="#007bff" data-original="#000000" style="" class=""/>
	</g>
</g>
<g xmlns="http://www.w3.org/2000/svg">
	<g>
		<path d="M324.268,204.803h-59.733c-4.71,0-8.533,3.814-8.533,8.533c0,4.719,3.823,8.533,8.533,8.533h59.733    c4.71,0,8.533-3.814,8.533-8.533C332.801,208.618,328.979,204.803,324.268,204.803z" fill="#007bff" data-original="#000000" style="" class=""/>
	</g>
</g>
<g xmlns="http://www.w3.org/2000/svg">
	<g>
		<path d="M230.402,204.803h-93.867c-4.71,0-8.533,3.814-8.533,8.533c0,4.719,3.823,8.533,8.533,8.533h93.867    c4.71,0,8.533-3.814,8.533-8.533C238.935,208.618,235.112,204.803,230.402,204.803z" fill="#007bff" data-original="#000000" style="" class=""/>
	</g>
</g>
<g xmlns="http://www.w3.org/2000/svg">
	<g>
		<path d="M349.868,290.137h-59.733c-4.71,0-8.533,3.814-8.533,8.533s3.823,8.533,8.533,8.533h59.733    c4.71,0,8.533-3.814,8.533-8.533S354.579,290.137,349.868,290.137z" fill="#007bff" data-original="#000000" style="" class=""/>
	</g>
</g>
<g xmlns="http://www.w3.org/2000/svg">
	<g>
		<path d="M256.001,290.137h-93.867c-4.71,0-8.533,3.814-8.533,8.533s3.823,8.533,8.533,8.533h93.867    c4.71,0,8.533-3.814,8.533-8.533S260.712,290.137,256.001,290.137z" fill="#007bff" data-original="#000000" style="" class=""/>
	</g>
</g>
<g xmlns="http://www.w3.org/2000/svg">
	<g>
		<path d="M375.468,204.803h-17.067c-4.71,0-8.533,3.814-8.533,8.533c0,4.719,3.823,8.533,8.533,8.533h17.067    c4.71,0,8.533-3.814,8.533-8.533C384.001,208.618,380.179,204.803,375.468,204.803z" fill="#007bff" data-original="#000000" style="" class=""/>
	</g>
</g>
<g xmlns="http://www.w3.org/2000/svg">
	<g>
		<path d="M247.468,247.47h-59.733c-4.71,0-8.533,3.814-8.533,8.533s3.823,8.533,8.533,8.533h59.733c4.71,0,8.533-3.814,8.533-8.533    S252.179,247.47,247.468,247.47z" fill="#007bff" data-original="#000000" style="" class=""/>
	</g>
</g>
<g xmlns="http://www.w3.org/2000/svg">
	<g>
		<path d="M375.468,247.47h-93.867c-4.71,0-8.533,3.814-8.533,8.533s3.823,8.533,8.533,8.533h93.867c4.71,0,8.533-3.814,8.533-8.533    S380.179,247.47,375.468,247.47z" fill="#007bff" data-original="#000000" style="" class=""/>
	</g>
</g>
<g xmlns="http://www.w3.org/2000/svg">
	<g>
		<path d="M187.735,162.137h-59.733c-4.71,0-8.533,3.814-8.533,8.533s3.823,8.533,8.533,8.533h59.733    c4.71,0,8.533-3.814,8.533-8.533S192.445,162.137,187.735,162.137z" fill="#007bff" data-original="#000000" style="" class=""/>
	</g>
</g>
<g xmlns="http://www.w3.org/2000/svg">
	<g>
		<path d="M315.735,162.137h-93.867c-4.71,0-8.533,3.814-8.533,8.533s3.823,8.533,8.533,8.533h93.867    c4.71,0,8.533-3.814,8.533-8.533S320.445,162.137,315.735,162.137z" fill="#007bff" data-original="#000000" style="" class=""/>
	</g>
</g>
<g xmlns="http://www.w3.org/2000/svg">
	<g>
		<path d="M153.602,247.47h-17.067c-4.71,0-8.533,3.814-8.533,8.533s3.823,8.533,8.533,8.533h17.067c4.71,0,8.533-3.814,8.533-8.533    S158.312,247.47,153.602,247.47z" fill="#007bff" data-original="#000000" style="" class=""/>
	</g>
</g>
<g xmlns="http://www.w3.org/2000/svg">
	<g>
		<path d="M290.135,119.47h-102.4c-4.71,0-8.533,3.814-8.533,8.533c0,4.719,3.823,8.533,8.533,8.533h102.4    c4.71,0,8.533-3.814,8.533-8.533C298.668,123.284,294.845,119.47,290.135,119.47z" fill="#007bff" data-original="#000000" style="" class=""/>
	</g>
</g>
<g xmlns="http://www.w3.org/2000/svg">
	<g>
		<path d="M153.602,119.47h-17.067c-4.71,0-8.533,3.814-8.533,8.533c0,4.719,3.823,8.533,8.533,8.533h17.067    c4.71,0,8.533-3.814,8.533-8.533C162.135,123.284,158.312,119.47,153.602,119.47z" fill="#007bff" data-original="#000000" style="" class=""/>
	</g>
</g>
<g xmlns="http://www.w3.org/2000/svg">
	<g>
		<path d="M423.528,170.875c-1.98-1.621-4.599-2.261-7.1-1.749c-5.026,1.024-10.197,1.545-15.36,1.545    c-42.351,0-76.8-34.449-76.8-76.8c0-10.615,2.167-20.949,6.434-30.72c1.161-2.628,0.905-5.675-0.674-8.081    c-1.579-2.415-4.267-3.866-7.142-3.866H93.868c-4.71,0-8.533,3.814-8.533,8.533v224.708c0,2.534,1.126,4.941,3.072,6.562    l109.585,91.332c2.876,2.398,6.997,2.637,10.138,0.58l28.356-18.586c11.853-7.765,27.179-7.774,39.04,0.009l28.348,18.577    c1.425,0.93,3.055,1.391,4.676,1.391c1.954,0,3.891-0.666,5.461-1.98l109.585-91.324c1.946-1.63,3.072-4.028,3.072-6.562V177.488    C426.668,174.937,425.516,172.496,423.528,170.875z M409.602,280.451l-101.658,84.727l-23.066-15.113    c-8.772-5.751-18.825-8.627-28.877-8.627s-20.105,2.876-28.877,8.619l-23.066,15.113l-101.658-84.727V68.27H310.76    c-2.364,8.303-3.558,16.879-3.558,25.6c0,51.755,42.112,93.867,93.867,93.867c2.85,0,5.7-0.128,8.533-0.375V280.451z" fill="#007bff" data-original="#000000" style="" class=""/>
	</g>
</g>
<g xmlns="http://www.w3.org/2000/svg">
</g>
<g xmlns="http://www.w3.org/2000/svg">
</g>
<g xmlns="http://www.w3.org/2000/svg">
</g>
<g xmlns="http://www.w3.org/2000/svg">
</g>
<g xmlns="http://www.w3.org/2000/svg">
</g>
<g xmlns="http://www.w3.org/2000/svg">
</g>
<g xmlns="http://www.w3.org/2000/svg">
</g>
<g xmlns="http://www.w3.org/2000/svg">
</g>
<g xmlns="http://www.w3.org/2000/svg">
</g>
<g xmlns="http://www.w3.org/2000/svg">
</g>
<g xmlns="http://www.w3.org/2000/svg">
</g>
<g xmlns="http://www.w3.org/2000/svg">
</g>
<g xmlns="http://www.w3.org/2000/svg">
</g>
<g xmlns="http://www.w3.org/2000/svg">
</g>
<g xmlns="http://www.w3.org/2000/svg">
</g>
</g></svg>
